<?xml version="1.0" encoding="UTF-8" standalone="no"?>
<!DOCTYPE svg PUBLIC "-//W3C//DTD SVG 1.1//EN" "http://www.w3.org/Graphics/SVG/1.1/DTD/svg11.dtd">
<svg width="100%" height="100%" viewBox="0 0 232 46" version="1.1" xmlns="http://www.w3.org/2000/svg" xmlns:xlink="http://www.w3.org/1999/xlink" xml:space="preserve" xmlns:serif="http://www.serif.com/" style="fill-rule:evenodd;clip-rule:evenodd;stroke-linejoin:round;stroke-miterlimit:2;">
    <g transform="matrix(1,0,0,1,-5025.73007,-110.38282)">
        <g transform="matrix(1,0,0,5.800926,4909,0)">
            <g transform="matrix(0.467117,0,0,0.02595,-19.681101,-15.878848)">
                <g transform="matrix(9.549547,0,0,29.633063,-7731.2207,-12219.928256)">
                    <path d="M850.276,458.426L850.276,467.45L852.196,467.45L852.196,464.138L853.552,464.138C855.016,464.138 856.36,462.986 856.36,461.282C856.36,459.602 855.016,458.426 853.552,458.426L850.276,458.426ZM852.196,462.434L852.196,460.094L853.228,460.094C853.888,460.094 854.428,460.538 854.428,461.258C854.428,461.99 853.888,462.434 853.228,462.434L852.196,462.434Z"/>
                </g>
                <g transform="matrix(9.549547,0,0,29.633063,-7731.2207,-12219.928256)">
                    <path d="M862.588,461.09L860.812,461.09L860.812,461.822L860.788,461.822C860.488,461.318 859.816,460.934 858.976,460.934C857.392,460.934 856.024,462.338 856.024,464.27C856.024,466.202 857.392,467.606 858.976,467.606C859.816,467.606 860.476,467.234 860.788,466.682L860.812,466.682L860.812,467.45L862.588,467.45L862.588,461.09ZM859.336,465.842C858.532,465.842 857.896,465.194 857.896,464.27C857.896,463.346 858.544,462.698 859.348,462.698C860.152,462.698 860.8,463.346 860.8,464.27C860.8,465.194 860.14,465.842 859.336,465.842Z"/>
                </g>
                <g transform="matrix(9.549547,0,0,29.633063,-7731.2207,-12219.928256)">
                    <path d="M863.212,461.09L863.212,467.45L865.036,467.45L865.036,461.09L863.212,461.09ZM867.605,462.266C867.605,461.558 867.029,461.006 866.369,461.006C865.709,461.006 865.121,461.558 865.121,462.266C865.121,462.962 865.709,463.514 866.369,463.514C867.029,463.514 867.605,462.962 867.605,462.266Z"/>
                </g>
                <g transform="matrix(9.549547,0,0,29.633063,-7733.375825,-12219.928256)">
                    <path d="M868.168,458.426L868.168,467.45L869.992,467.45L869.992,464.966L870.016,464.966L872.176,467.45L873.124,467.45L873.124,465.758L871.732,464.234L873.124,462.782L873.124,461.09L872.212,461.09L870.028,463.55L869.992,463.55L869.992,458.426L868.168,458.426Z"/>
                </g>
                <g transform="matrix(9.549547,0,0,29.633063,-7503.615652,-12220.995046)">
                    <path d="M850.276,458.426L850.276,467.45L855.064,467.45L855.064,465.65L852.196,465.65L852.196,458.426L850.276,458.426Z" style="fill-rule:nonzero;"/>
                </g>
                <g transform="matrix(9.549547,0,0,29.633063,-7503.615652,-12220.995046)">
                    <path d="M855.532,461.09L855.532,467.45L857.356,467.45L857.356,461.09L855.532,461.09ZM857.656,459.017C857.656,458.333 857.104,457.805 856.444,457.805C855.784,457.805 855.232,458.333 855.232,459.017C855.232,459.701 855.784,460.229 856.444,460.229C857.104,460.229 857.656,459.701 857.656,459.017Z" style="fill-rule:nonzero;"/>
                </g>
                <g transform="matrix(9.549547,0,0,29.633063,-7502.610007,-12220.995046)">
                    <path d="M858.76,460.55L858.76,461.09L857.692,461.09L857.692,462.782L858.76,462.782L858.76,467.45L860.584,467.45L860.584,462.782L861.772,462.782L861.772,461.09L860.584,461.09L860.584,460.73C860.584,460.238 860.824,460.01 861.292,460.01L861.772,460.01L861.772,458.426L860.872,458.426C859.6,458.426 858.76,459.278 858.76,460.55Z" style="fill-rule:nonzero;"/>
                </g>
                <g transform="matrix(9.549547,0,0,29.633063,-7502.610007,-12220.995046)">
                    <path d="M864.976,460.898C863.152,460.898 861.724,462.362 861.724,464.258C861.724,466.154 863.152,467.642 864.976,467.642C866.272,467.642 867.364,466.898 867.88,465.782L866.08,465.266C865.84,465.674 865.432,465.89 864.952,465.89C864.316,465.89 863.788,465.494 863.62,464.762L868.156,464.762C868.3,462.29 866.74,460.898 864.976,460.898ZM863.656,463.538C863.86,462.866 864.376,462.518 865,462.518C865.612,462.518 866.14,462.854 866.332,463.538L863.656,463.538Z" style="fill-rule:nonzero;"/>
                </g>
                <g transform="matrix(0.520883,1.407022,0.72761,-2.593738,-2991.03521,2173.919343)">
                    <path d="M3437.122,2068.191L3437.122,2129.55L3412.214,2129.55L3412.214,2069.373L3437.122,2068.191Z"/>
                </g>
                <g transform="matrix(0.697122,0,0,-2.225789,-2041.907191,6183.136495)">
                    <rect x="3412.214" y="2050.737" width="24.908" height="78.813"/>
                </g>
                <g transform="matrix(-0,2.071554,0.717282,0,-1173.302897,-5625.377898)">
                    <rect x="3412.214" y="2050.737" width="24.908" height="78.813"/>
                </g>
                <g transform="matrix(0.7744,0,0,-2.40303,-1929.935493,7635.709074)">
                    <circle cx="2964.455" cy="2602.257" r="15.488"/>
                </g>
            </g>
        </g>
    </g>
</svg>
